<svg id="Layer_1" data-name="Layer 1" xmlns="http://www.w3.org/2000/svg" viewBox="0 0 145.3 199.71"><defs><style>.cls-1{fill:#099;}</style></defs><title>G</title><path class="cls-1" d="M326,318.19a87.25,87.25,0,0,1,4.75,38.93c-1.93,20.83-4.1,41.63-5.94,62.46-0.46,5.19-.07,10.46-0.07,15.68l-2.49.29c-0.69-2.63-1.8-5.23-2-7.9-1.06-14.07-1.55-28.18-2.89-42.21-1.6-16.75-3.5-33.49-6-50.14-1.95-13.18-7.08-15.63-18.59-9-14.22,8.13-28.05,16.93-42.1,25.37a61.07,61.07,0,0,1-6.25,2.87l-1.44-2c5.23-4.67,10.45-9.36,15.72-14,10.2-9,20.61-17.8,30.59-27.05C298.25,303.21,320,301.72,326,318.19Z" transform="translate(-185.93 -235.84)"/><path class="cls-1" d="M288.46,371.87c0.53,0.81,1.05,1.63,1.57,2.45-6.89,5.68-13.2,12.34-20.8,16.82A217.69,217.69,0,0,1,236,407c-17.49,6.65-40.21-6.64-45.74-24.32-11.3-36.14.69-66.67,21.33-95.35,10.83-15.05,23.45-28.47,39.46-38.17,7.57-4.58,15.57-8.47,23.46-12.49,1.47-.74,3.38-0.6,5.09-0.87l1.1,1.74c-2.42,1.92-4.56,4.43-7.29,5.66-20.68,9.27-34.45,26.45-46.65,44.06-8.18,11.8-12.33,26.66-17,40.59-5.6,16.87-6.95,34.3-2.65,51.91,2.31,9.44,10.94,17,20.65,16.11,18.37-1.62,35.85-6,50.43-18.45C281.15,375,285,373.7,288.46,371.87Z" transform="translate(-185.93 -235.84)"/></svg>