<?xml version="1.0" encoding="UTF-8" standalone="no"?>
<svg width="60" xmlns="http://www.w3.org/2000/svg" height="60">
 <g stroke-linejoin="round" stroke-linecap="round" stroke="#333" fill-rule="evenodd">
  <g stroke-width="3.553">
   <path id="path876" fill="none" d="m13.359 26.285v-3.7983c2.5322-6.3305 6.9653-12.576 17.027-12.905 10.062 0.46252 14.151 6.2577 16.683 12.746v4.4314"/>
   <g fill="#333">
    <path id="path879" d="m13.308 26.284c-5.4581 1.1178-9.5646 5.9489-9.5646 11.736 0 5.8056 4.1353 10.638 9.6196 11.736v-23.472c-0.017564 0.003519-0.037432-0.003588-0.054969 0z"/>
    <path id="path880" d="m47.162 26.284c5.4581 1.1178 9.5646 5.9489 9.5646 11.736 0 5.8056-4.1353 10.638-9.6196 11.736v-23.472c0.017563 0.003519 0.03743-0.003588 0.05497 0z"/>
   </g>
  </g>
  <path id="path885" stroke-width="2.243" fill="#7f7f7f" d="m18.347 38.946l2.4947-13.623 0.8955 13.711 0.9595-3.5384 1.1514 2.5654 1.7271-10.262 1.9829 11.146 2.3028-14.684 0.8316 13.711 1.1514-5.573 0.8955 5.2192 2.0469-6.1923 1.5352 6.6346 2.1748-8.4922 1.4073 9.2884 1.8473-3.6269v8.9346l-1.5914 3.0961-1.4072-4.423-2.3667 3.0077-0.3838 3.0961-1.0235-5.9269-1.5352 4.9538-1.7271-4.3346-1.919 6.9884-0.8316-8.0499-3.0064 5.9269-0.064-6.4576-2.8785 6.723-0.3198-3.3615-2.3028 3.7154-0.4478-3.1846-1.7911 0.7962 0.1919-7.7846z"/>
  <g stroke-width="3.724" fill="none">
   <path id="path882" d="m18.673 26.078v24.135"/>
   <path id="path883" d="m41.694 26.078v24.135"/>
  </g>
 </g>
</svg>
